<svg xmlns="http://www.w3.org/2000/svg" xmlns:xlink="http://www.w3.org/1999/xlink" width="500" zoomAndPan="magnify" viewBox="0 0 375 374.999991" height="500" preserveAspectRatio="xMidYMid meet" version="1.0"><defs><g/><clipPath id="16aa6dfdfe"><path d="M 232.390625 161.175781 L 252.640625 161.175781 L 252.640625 181.425781 L 232.390625 181.425781 Z M 232.390625 161.175781 " clip-rule="nonzero"/></clipPath><clipPath id="e7f6da56d1"><path d="M 232.390625 161.175781 L 244 161.175781 L 244 181.425781 L 232.390625 181.425781 Z M 232.390625 161.175781 " clip-rule="nonzero"/></clipPath><clipPath id="fb6c61ff6e"><path d="M 43.253906 161.175781 L 63.503906 161.175781 L 63.503906 181.425781 L 43.253906 181.425781 Z M 43.253906 161.175781 " clip-rule="nonzero"/></clipPath><clipPath id="1e0e20b2bf"><path d="M 43.253906 161.175781 L 55 161.175781 L 55 181.425781 L 43.253906 181.425781 Z M 43.253906 161.175781 " clip-rule="nonzero"/></clipPath></defs><g fill="#4f2b1d" fill-opacity="1"><g transform="translate(19.09896, 181.252502)"><g><path d="M 25.761719 0 C 24.847656 -1.214844 20.859375 -8.167969 19.757812 -10.335938 C 22.757812 -11.777344 24.355469 -14.398438 24.355469 -17.554688 C 24.355469 -22.570312 20.328125 -26.597656 12.613281 -26.597656 L 2.964844 -26.597656 C 3.039062 -24.960938 3.078125 -2.050781 2.964844 0 L 9.347656 0 C 9.308594 -0.761719 9.269531 -4.597656 9.269531 -9.117188 L 13.90625 -9.117188 C 15.085938 -7.371094 18.277344 -1.0625 18.695312 0 Z M 11.890625 -12.539062 C 10.980469 -12.539062 10.03125 -12.726562 9.269531 -12.957031 L 9.269531 -21.921875 C 9.347656 -22.605469 9.800781 -22.835938 10.867188 -22.835938 L 12.460938 -22.835938 C 15.917969 -22.835938 17.820312 -20.632812 17.820312 -17.289062 C 17.820312 -14.25 16.109375 -12.539062 13.03125 -12.539062 Z M 11.890625 -12.539062 "/></g></g></g><g fill="#4f2b1d" fill-opacity="1"><g transform="translate(45.536458, 181.252502)"><g/></g></g><g fill="#4f2b1d" fill-opacity="1"><g transform="translate(54.350775, 181.252502)"><g/></g></g><g fill="#4f2b1d" fill-opacity="1"><g transform="translate(63.161457, 181.252502)"><g><path d="M 1.367188 -5.320312 C 1.328125 -1.746094 4.9375 0.417969 8.398438 0.417969 C 10.867188 0.417969 12.917969 -0.835938 14.097656 -2.582031 C 14.816406 -0.796875 16.1875 0.265625 18.238281 0.265625 C 19.949219 0.265625 21.203125 -0.0390625 21.695312 -0.378906 L 21.65625 -3.039062 C 19.796875 -3.039062 19.414062 -4.066406 19.300781 -6.191406 C 19.1875 -7.863281 19.074219 -9.234375 19.035156 -11.285156 C 18.84375 -16.335938 15.046875 -19.035156 9.652344 -19.035156 C 5.207031 -19.035156 2.886719 -17.476562 2.699219 -15.691406 C 2.507812 -13.792969 4.902344 -12.878906 7.257812 -13.679688 C 7.597656 -14.589844 8.015625 -16.1875 9.613281 -16.1875 C 11.625 -16.1875 12.804688 -14.476562 12.996094 -11.132812 L 13.03125 -10.335938 C 11.777344 -11.09375 10.144531 -11.398438 8.777344 -11.398438 C 4.484375 -11.398438 1.40625 -9.460938 1.367188 -5.320312 Z M 7.332031 -6.421875 C 7.371094 -8.132812 8.359375 -9.003906 10.144531 -9.003906 C 11.285156 -9.003906 12.347656 -8.625 13.183594 -8.015625 L 13.296875 -6.269531 C 13.414062 -4.292969 12.082031 -2.925781 10.523438 -2.925781 C 8.890625 -2.925781 7.332031 -4.101562 7.332031 -6.421875 Z M 7.332031 -6.421875 "/></g></g></g><g fill="#4f2b1d" fill-opacity="1"><g transform="translate(85.994911, 181.252502)"><g><path d="M 9.460938 0.457031 C 14.363281 0.457031 17.476562 -1.863281 17.476562 -5.355469 C 17.476562 -8.167969 15.503906 -9.5 12.613281 -10.636719 C 9.421875 -12.082031 7.257812 -12.613281 7.257812 -14.515625 C 7.257812 -15.769531 8.246094 -16.453125 9.460938 -16.453125 C 10.789062 -16.453125 11.96875 -15.464844 12.460938 -13.414062 C 14.667969 -12.308594 17.058594 -13.109375 17.058594 -14.894531 C 17.058594 -16.832031 14.363281 -19.035156 9.382812 -19.035156 C 4.863281 -19.035156 1.710938 -16.871094 1.710938 -13.714844 C 1.710938 -10.753906 4.445312 -9.347656 7.144531 -8.207031 C 9.613281 -7.144531 11.890625 -6.003906 11.890625 -4.21875 C 11.890625 -2.851562 10.867188 -2.128906 9.5 -2.128906 C 7.828125 -2.128906 6.574219 -3.800781 5.925781 -5.964844 C 3.039062 -7.257812 0.949219 -5.890625 0.949219 -4.21875 C 0.949219 -2.394531 3.800781 0.457031 9.460938 0.457031 Z M 9.460938 0.457031 "/></g></g></g><g fill="#4f2b1d" fill-opacity="1"><g transform="translate(104.839183, 181.252502)"><g><path d="M 15.046875 -4.976562 C 14.324219 -4.179688 13.144531 -3.648438 12.007812 -3.648438 C 10.523438 -3.648438 9.574219 -4.9375 9.574219 -7.636719 C 9.574219 -10.636719 9.574219 -13.070312 9.6875 -15.957031 L 15.046875 -15.917969 L 15.046875 -18.617188 L 8.585938 -18.617188 C 9.347656 -19.414062 9.800781 -21.316406 9.839844 -23.976562 L 4.445312 -23.976562 C 4.101562 -23.976562 3.988281 -23.859375 3.988281 -23.558594 C 4.140625 -20.667969 3.800781 -18.65625 1.253906 -18.578125 L 0.644531 -18.578125 L 0.644531 -16.109375 L 3.609375 -15.769531 C 3.683594 -12.878906 3.683594 -9.878906 3.683594 -6.953125 C 3.683594 -1.785156 6.496094 0.457031 10.523438 0.457031 C 13.679688 0.457031 16.1875 -1.558594 16.375 -3.304688 C 16.488281 -4.253906 16.035156 -4.902344 15.046875 -4.976562 Z M 15.046875 -4.976562 "/></g></g></g><g fill="#4f2b1d" fill-opacity="1"><g transform="translate(122.08778, 181.252502)"><g><path d="M 1.214844 -9.269531 C 1.214844 -3.722656 5.585938 0.457031 11.398438 0.457031 C 15.996094 0.457031 19.113281 -1.898438 19.148438 -4.066406 C 19.1875 -5.054688 18.617188 -5.507812 17.707031 -5.585938 C 16.453125 -4.253906 14.515625 -3.417969 12.996094 -3.417969 C 10.488281 -3.417969 8.433594 -5.28125 7.863281 -8.054688 L 18.3125 -9.878906 C 18.960938 -10.5625 19.226562 -11.816406 19.226562 -12.386719 C 19.226562 -15.957031 15.84375 -19.035156 11.054688 -19.035156 C 5.625 -19.035156 1.214844 -15.007812 1.214844 -9.269531 Z M 7.484375 -10.449219 C 7.371094 -13.867188 8.511719 -16.335938 10.523438 -16.335938 C 12.308594 -16.335938 13.679688 -14.742188 13.679688 -12.652344 C 13.679688 -12.273438 13.679688 -11.816406 13.601562 -11.4375 Z M 7.484375 -10.449219 "/></g></g></g><g fill="#4f2b1d" fill-opacity="1"><g transform="translate(142.565723, 181.252502)"><g><path d="M 1.214844 -9.382812 C 1.214844 -3.152344 4.9375 0.417969 9.460938 0.417969 C 11.777344 0.417969 13.640625 -0.875 14.894531 -2.699219 C 15.539062 -0.761719 16.90625 0.304688 18.882812 0.304688 C 20.554688 0.304688 21.808594 -0.0390625 22.304688 -0.34375 L 22.304688 -3.039062 C 20.972656 -3.039062 20.328125 -3.457031 20.289062 -5.773438 C 20.175781 -12.878906 20.214844 -20.136719 20.328125 -27.050781 L 20.328125 -27.886719 C 20.328125 -28.269531 19.492188 -28.496094 18.425781 -28.496094 C 15.351562 -28.496094 13.375 -28.039062 13.414062 -26.863281 C 13.90625 -26.179688 14.25 -25.265625 14.25 -23.175781 L 14.25 -18.046875 C 12.804688 -18.730469 11.207031 -19.074219 10.144531 -19.074219 C 4.9375 -19.074219 1.214844 -15.046875 1.214844 -9.382812 Z M 7.445312 -9.992188 C 7.445312 -13.792969 8.664062 -16.222656 10.828125 -16.222656 C 12.007812 -16.222656 13.375 -15.617188 14.25 -14.855469 L 14.25 -8.398438 C 14.285156 -5.242188 13.109375 -3 11.472656 -3 C 9.003906 -3 7.445312 -5.660156 7.445312 -9.992188 Z M 7.445312 -9.992188 "/></g></g></g><g fill="#4f2b1d" fill-opacity="1"><g transform="translate(166.614931, 181.252502)"><g/></g></g><g fill="#4f2b1d" fill-opacity="1"><g transform="translate(175.42925, 181.252502)"><g><path d="M 28.722656 -2.699219 C 27.089844 -3.722656 25.457031 -4.789062 23.898438 -5.890625 C 25.152344 -8.132812 25.914062 -10.714844 26.332031 -13.070312 C 24.660156 -13.601562 22.152344 -14.097656 20.898438 -13.980469 C 20.785156 -12.425781 20.367188 -10.675781 19.679688 -9.003906 C 17.78125 -10.523438 16.070312 -12.042969 14.703125 -13.601562 C 18.238281 -15.539062 21.847656 -17.589844 21.847656 -21.011719 C 21.847656 -24.886719 18.960938 -26.9375 14.019531 -26.9375 C 8.664062 -26.9375 5.546875 -24.507812 5.546875 -20.515625 C 5.546875 -19.035156 6.421875 -16.984375 7.980469 -14.703125 C 4.863281 -12.996094 2.089844 -10.867188 2.089844 -7.5625 C 2.089844 -2.699219 6.191406 0.378906 13.144531 0.378906 C 16.453125 0.378906 18.960938 -0.609375 20.898438 -2.203125 C 21.65625 -1.671875 22.417969 -1.140625 23.214844 -0.644531 C 26.597656 1.480469 29.636719 -0.988281 28.722656 -2.699219 Z M 11.398438 -20.707031 C 11.398438 -22.683594 12.386719 -23.785156 13.792969 -23.785156 C 15.234375 -23.785156 16.300781 -22.988281 16.300781 -20.972656 C 16.300781 -19.378906 14.589844 -18.199219 12.386719 -16.984375 C 11.742188 -18.238281 11.398438 -19.492188 11.398438 -20.707031 Z M 13.109375 -2.964844 C 10.03125 -2.964844 8.167969 -4.710938 8.167969 -7.445312 C 8.167969 -8.929688 9.195312 -10.144531 10.675781 -11.207031 C 12.460938 -9.15625 14.667969 -7.027344 17.171875 -4.976562 C 16.035156 -3.761719 14.667969 -2.964844 13.109375 -2.964844 Z M 13.109375 -2.964844 "/></g></g></g><g fill="#4f2b1d" fill-opacity="1"><g transform="translate(204.911346, 181.252502)"><g/></g></g><g fill="#4f2b1d" fill-opacity="1"><g transform="translate(213.725665, 181.252502)"><g><path d="M 20.933594 -26.597656 L 0.152344 -26.597656 L 0.152344 -22.871094 C 2.582031 -22.949219 4.976562 -22.988281 7.410156 -22.988281 C 7.484375 -16.070312 7.445312 -3.382812 7.332031 0 L 13.714844 0 C 13.640625 -3.382812 13.601562 -16.070312 13.679688 -22.988281 C 16.109375 -22.988281 18.503906 -22.949219 20.933594 -22.871094 Z M 20.933594 -26.597656 "/></g></g></g><g fill="#4f2b1d" fill-opacity="1"><g transform="translate(235.380196, 181.252502)"><g/></g></g><g fill="#4f2b1d" fill-opacity="1"><g transform="translate(244.194513, 181.252502)"><g/></g></g><g fill="#4f2b1d" fill-opacity="1"><g transform="translate(253.005195, 181.252502)"><g><path d="M 1.367188 -5.320312 C 1.328125 -1.746094 4.9375 0.417969 8.398438 0.417969 C 10.867188 0.417969 12.917969 -0.835938 14.097656 -2.582031 C 14.816406 -0.796875 16.1875 0.265625 18.238281 0.265625 C 19.949219 0.265625 21.203125 -0.0390625 21.695312 -0.378906 L 21.65625 -3.039062 C 19.796875 -3.039062 19.414062 -4.066406 19.300781 -6.191406 C 19.1875 -7.863281 19.074219 -9.234375 19.035156 -11.285156 C 18.84375 -16.335938 15.046875 -19.035156 9.652344 -19.035156 C 5.207031 -19.035156 2.886719 -17.476562 2.699219 -15.691406 C 2.507812 -13.792969 4.902344 -12.878906 7.257812 -13.679688 C 7.597656 -14.589844 8.015625 -16.1875 9.613281 -16.1875 C 11.625 -16.1875 12.804688 -14.476562 12.996094 -11.132812 L 13.03125 -10.335938 C 11.777344 -11.09375 10.144531 -11.398438 8.777344 -11.398438 C 4.484375 -11.398438 1.40625 -9.460938 1.367188 -5.320312 Z M 7.332031 -6.421875 C 7.371094 -8.132812 8.359375 -9.003906 10.144531 -9.003906 C 11.285156 -9.003906 12.347656 -8.625 13.183594 -8.015625 L 13.296875 -6.269531 C 13.414062 -4.292969 12.082031 -2.925781 10.523438 -2.925781 C 8.890625 -2.925781 7.332031 -4.101562 7.332031 -6.421875 Z M 7.332031 -6.421875 "/></g></g></g><g fill="#4f2b1d" fill-opacity="1"><g transform="translate(275.838649, 181.252502)"><g><path d="M 9.460938 0.457031 C 14.363281 0.457031 17.476562 -1.863281 17.476562 -5.355469 C 17.476562 -8.167969 15.503906 -9.5 12.613281 -10.636719 C 9.421875 -12.082031 7.257812 -12.613281 7.257812 -14.515625 C 7.257812 -15.769531 8.246094 -16.453125 9.460938 -16.453125 C 10.789062 -16.453125 11.96875 -15.464844 12.460938 -13.414062 C 14.667969 -12.308594 17.058594 -13.109375 17.058594 -14.894531 C 17.058594 -16.832031 14.363281 -19.035156 9.382812 -19.035156 C 4.863281 -19.035156 1.710938 -16.871094 1.710938 -13.714844 C 1.710938 -10.753906 4.445312 -9.347656 7.144531 -8.207031 C 9.613281 -7.144531 11.890625 -6.003906 11.890625 -4.21875 C 11.890625 -2.851562 10.867188 -2.128906 9.5 -2.128906 C 7.828125 -2.128906 6.574219 -3.800781 5.925781 -5.964844 C 3.039062 -7.257812 0.949219 -5.890625 0.949219 -4.21875 C 0.949219 -2.394531 3.800781 0.457031 9.460938 0.457031 Z M 9.460938 0.457031 "/></g></g></g><g fill="#4f2b1d" fill-opacity="1"><g transform="translate(294.682921, 181.252502)"><g><path d="M 15.046875 -4.976562 C 14.324219 -4.179688 13.144531 -3.648438 12.007812 -3.648438 C 10.523438 -3.648438 9.574219 -4.9375 9.574219 -7.636719 C 9.574219 -10.636719 9.574219 -13.070312 9.6875 -15.957031 L 15.046875 -15.917969 L 15.046875 -18.617188 L 8.585938 -18.617188 C 9.347656 -19.414062 9.800781 -21.316406 9.839844 -23.976562 L 4.445312 -23.976562 C 4.101562 -23.976562 3.988281 -23.859375 3.988281 -23.558594 C 4.140625 -20.667969 3.800781 -18.65625 1.253906 -18.578125 L 0.644531 -18.578125 L 0.644531 -16.109375 L 3.609375 -15.769531 C 3.683594 -12.878906 3.683594 -9.878906 3.683594 -6.953125 C 3.683594 -1.785156 6.496094 0.457031 10.523438 0.457031 C 13.679688 0.457031 16.1875 -1.558594 16.375 -3.304688 C 16.488281 -4.253906 16.035156 -4.902344 15.046875 -4.976562 Z M 15.046875 -4.976562 "/></g></g></g><g fill="#4f2b1d" fill-opacity="1"><g transform="translate(311.931518, 181.252502)"><g><path d="M 1.214844 -9.269531 C 1.214844 -3.722656 5.585938 0.457031 11.398438 0.457031 C 15.996094 0.457031 19.113281 -1.898438 19.148438 -4.066406 C 19.1875 -5.054688 18.617188 -5.507812 17.707031 -5.585938 C 16.453125 -4.253906 14.515625 -3.417969 12.996094 -3.417969 C 10.488281 -3.417969 8.433594 -5.28125 7.863281 -8.054688 L 18.3125 -9.878906 C 18.960938 -10.5625 19.226562 -11.816406 19.226562 -12.386719 C 19.226562 -15.957031 15.84375 -19.035156 11.054688 -19.035156 C 5.625 -19.035156 1.214844 -15.007812 1.214844 -9.269531 Z M 7.484375 -10.449219 C 7.371094 -13.867188 8.511719 -16.335938 10.523438 -16.335938 C 12.308594 -16.335938 13.679688 -14.742188 13.679688 -12.652344 C 13.679688 -12.273438 13.679688 -11.816406 13.601562 -11.4375 Z M 7.484375 -10.449219 "/></g></g></g><g fill="#4f2b1d" fill-opacity="1"><g transform="translate(332.40946, 181.252502)"><g><path d="M 1.214844 -9.382812 C 1.214844 -3.152344 4.9375 0.417969 9.460938 0.417969 C 11.777344 0.417969 13.640625 -0.875 14.894531 -2.699219 C 15.539062 -0.761719 16.90625 0.304688 18.882812 0.304688 C 20.554688 0.304688 21.808594 -0.0390625 22.304688 -0.34375 L 22.304688 -3.039062 C 20.972656 -3.039062 20.328125 -3.457031 20.289062 -5.773438 C 20.175781 -12.878906 20.214844 -20.136719 20.328125 -27.050781 L 20.328125 -27.886719 C 20.328125 -28.269531 19.492188 -28.496094 18.425781 -28.496094 C 15.351562 -28.496094 13.375 -28.039062 13.414062 -26.863281 C 13.90625 -26.179688 14.25 -25.265625 14.25 -23.175781 L 14.25 -18.046875 C 12.804688 -18.730469 11.207031 -19.074219 10.144531 -19.074219 C 4.9375 -19.074219 1.214844 -15.046875 1.214844 -9.382812 Z M 7.445312 -9.992188 C 7.445312 -13.792969 8.664062 -16.222656 10.828125 -16.222656 C 12.007812 -16.222656 13.375 -15.617188 14.25 -14.855469 L 14.25 -8.398438 C 14.285156 -5.242188 13.109375 -3 11.472656 -3 C 9.003906 -3 7.445312 -5.660156 7.445312 -9.992188 Z M 7.445312 -9.992188 "/></g></g></g><g clip-path="url(#16aa6dfdfe)"><path fill="#a66f5b" d="M 242.523438 161.183594 C 236.929688 161.183594 232.394531 165.71875 232.394531 171.308594 C 232.394531 176.902344 236.929688 181.433594 242.523438 181.433594 C 248.117188 181.433594 252.648438 176.902344 252.648438 171.308594 C 252.648438 165.71875 248.117188 161.183594 242.523438 161.183594 Z M 242.523438 161.183594 " fill-opacity="1" fill-rule="evenodd"/></g><g clip-path="url(#e7f6da56d1)"><path fill="#4f2b1d" d="M 242.535156 161.183594 C 242.886719 161.183594 243.230469 161.203125 243.574219 161.238281 L 243.589844 161.242188 L 242.601562 161.390625 C 237.980469 162.335938 234.507812 166.417969 234.507812 171.308594 C 234.507812 176.203125 237.980469 180.285156 242.601562 181.230469 L 243.589844 181.378906 L 243.574219 181.382812 C 243.230469 181.417969 242.886719 181.433594 242.535156 181.433594 C 236.9375 181.433594 232.398438 176.902344 232.398438 171.308594 C 232.398438 165.71875 236.9375 161.183594 242.535156 161.183594 Z M 242.535156 161.183594 " fill-opacity="1" fill-rule="evenodd"/></g><path fill="#ffffff" d="M 242.148438 176.09375 C 240.300781 175.882812 238.570312 174.445312 237.957031 172.605469 C 237.597656 171.535156 237.703125 170.464844 238.242188 169.734375 C 238.289062 169.671875 238.332031 169.617188 238.339844 169.617188 C 238.34375 169.617188 238.382812 169.714844 238.421875 169.835938 C 238.625 170.460938 238.785156 170.816406 239.007812 171.152344 C 239.375 171.699219 239.863281 172.132812 240.433594 172.417969 C 240.710938 172.554688 240.941406 172.636719 241.367188 172.742188 C 241.570312 172.792969 241.824219 172.867188 241.933594 172.910156 C 242.523438 173.144531 243.027344 173.546875 243.386719 174.070312 C 243.570312 174.332031 243.683594 174.585938 243.871094 175.140625 C 243.96875 175.433594 244.046875 175.671875 244.042969 175.671875 C 244.039062 175.671875 243.996094 175.703125 243.945312 175.734375 C 243.722656 175.875 243.351562 176.011719 243.046875 176.066406 C 242.84375 176.101562 242.355469 176.117188 242.148438 176.09375 Z M 244.414062 174.980469 C 244.164062 174.191406 243.914062 173.742188 243.46875 173.277344 C 243.160156 172.957031 242.816406 172.707031 242.429688 172.515625 C 242.128906 172.371094 241.910156 172.292969 241.5 172.191406 C 241.109375 172.097656 240.925781 172.035156 240.675781 171.910156 C 240.015625 171.578125 239.480469 171.003906 239.191406 170.3125 C 239.148438 170.203125 239.039062 169.90625 238.953125 169.65625 L 238.800781 169.199219 L 238.84375 169.164062 C 238.929688 169.097656 239.265625 168.945312 239.445312 168.890625 C 239.773438 168.789062 239.941406 168.765625 240.339844 168.765625 C 240.726562 168.769531 240.882812 168.789062 241.238281 168.878906 C 242.089844 169.09375 242.902344 169.574219 243.601562 170.277344 C 244.285156 170.960938 244.761719 171.777344 244.972656 172.621094 C 245.058594 172.960938 245.085938 173.171875 245.085938 173.527344 C 245.085938 174.007812 245.011719 174.359375 244.835938 174.738281 C 244.75 174.917969 244.582031 175.183594 244.523438 175.234375 C 244.503906 175.25 244.484375 175.199219 244.414062 174.980469 Z M 245.519531 172.496094 C 245.296875 171.613281 244.84375 170.800781 244.167969 170.054688 L 244.011719 169.886719 L 244.066406 169.738281 C 244.222656 169.332031 244.472656 168.949219 244.777344 168.644531 C 245.175781 168.246094 245.550781 168.039062 246.351562 167.765625 C 246.625 167.671875 246.859375 167.59375 246.867188 167.59375 C 246.886719 167.597656 247.019531 167.824219 247.082031 167.960938 C 247.425781 168.742188 247.394531 169.695312 246.992188 170.683594 C 246.746094 171.285156 246.339844 171.875 245.820312 172.390625 C 245.6875 172.523438 245.574219 172.628906 245.566406 172.628906 C 245.558594 172.628906 245.539062 172.570312 245.519531 172.496094 Z M 243.402344 169.363281 C 243.03125 169.0625 242.421875 168.703125 242 168.535156 C 241.816406 168.460938 241.460938 168.347656 241.300781 168.304688 L 241.21875 168.285156 L 241.335938 168.15625 C 241.816406 167.621094 242.542969 167.113281 243.210938 166.84375 C 244.175781 166.457031 245.113281 166.433594 245.898438 166.777344 C 246.132812 166.882812 246.472656 167.105469 246.441406 167.136719 C 246.4375 167.140625 246.269531 167.199219 246.070312 167.265625 C 245.589844 167.429688 245.351562 167.53125 245.113281 167.675781 C 244.476562 168.058594 244.011719 168.566406 243.679688 169.238281 C 243.613281 169.375 243.554688 169.484375 243.554688 169.484375 C 243.554688 169.484375 243.484375 169.429688 243.402344 169.363281 Z M 243.402344 169.363281 " fill-opacity="1" fill-rule="nonzero"/><g clip-path="url(#fb6c61ff6e)"><path fill="#a66f5b" d="M 53.386719 161.183594 C 47.796875 161.183594 43.261719 165.71875 43.261719 171.308594 C 43.261719 176.902344 47.796875 181.433594 53.386719 181.433594 C 58.980469 181.433594 63.511719 176.902344 63.511719 171.308594 C 63.511719 165.71875 58.980469 161.183594 53.386719 161.183594 Z M 53.386719 161.183594 " fill-opacity="1" fill-rule="evenodd"/></g><g clip-path="url(#1e0e20b2bf)"><path fill="#4f2b1d" d="M 53.402344 161.183594 C 53.753906 161.183594 54.097656 161.203125 54.4375 161.238281 L 54.453125 161.242188 L 53.464844 161.390625 C 48.847656 162.335938 45.371094 166.417969 45.371094 171.308594 C 45.371094 176.203125 48.847656 180.285156 53.464844 181.230469 L 54.453125 181.378906 L 54.4375 181.382812 C 54.097656 181.417969 53.753906 181.433594 53.402344 181.433594 C 47.800781 181.433594 43.261719 176.902344 43.261719 171.308594 C 43.261719 165.71875 47.800781 161.183594 53.402344 161.183594 Z M 53.402344 161.183594 " fill-opacity="1" fill-rule="evenodd"/></g><path fill="#ffffff" d="M 53.011719 176.09375 C 51.164062 175.882812 49.433594 174.445312 48.820312 172.605469 C 48.464844 171.535156 48.570312 170.464844 49.105469 169.734375 C 49.152344 169.671875 49.199219 169.617188 49.203125 169.617188 C 49.210938 169.617188 49.246094 169.714844 49.285156 169.835938 C 49.492188 170.460938 49.648438 170.816406 49.875 171.152344 C 50.238281 171.699219 50.726562 172.132812 51.300781 172.417969 C 51.578125 172.554688 51.804688 172.636719 52.234375 172.742188 C 52.4375 172.792969 52.691406 172.867188 52.796875 172.910156 C 53.390625 173.144531 53.894531 173.546875 54.253906 174.070312 C 54.433594 174.332031 54.550781 174.585938 54.738281 175.140625 C 54.832031 175.433594 54.910156 175.671875 54.910156 175.671875 C 54.90625 175.671875 54.863281 175.703125 54.808594 175.734375 C 54.585938 175.875 54.21875 176.011719 53.910156 176.066406 C 53.710938 176.101562 53.222656 176.117188 53.011719 176.09375 Z M 55.277344 174.980469 C 55.027344 174.191406 54.78125 173.742188 54.332031 173.277344 C 54.027344 172.957031 53.683594 172.707031 53.292969 172.515625 C 52.992188 172.371094 52.777344 172.292969 52.367188 172.191406 C 51.976562 172.097656 51.792969 172.035156 51.542969 171.910156 C 50.882812 171.578125 50.347656 171.003906 50.058594 170.3125 C 50.011719 170.203125 49.90625 169.90625 49.820312 169.65625 L 49.664062 169.199219 L 49.710938 169.164062 C 49.796875 169.097656 50.132812 168.945312 50.308594 168.890625 C 50.636719 168.789062 50.804688 168.765625 51.207031 168.765625 C 51.589844 168.769531 51.75 168.789062 52.105469 168.878906 C 52.953125 169.09375 53.765625 169.574219 54.46875 170.277344 C 55.148438 170.960938 55.628906 171.777344 55.839844 172.621094 C 55.925781 172.960938 55.949219 173.171875 55.953125 173.527344 C 55.953125 174.007812 55.878906 174.359375 55.699219 174.738281 C 55.617188 174.917969 55.449219 175.183594 55.390625 175.234375 C 55.371094 175.25 55.347656 175.199219 55.277344 174.980469 Z M 56.382812 172.496094 C 56.164062 171.613281 55.710938 170.800781 55.03125 170.054688 L 54.878906 169.886719 L 54.933594 169.738281 C 55.089844 169.332031 55.339844 168.949219 55.644531 168.644531 C 56.042969 168.246094 56.414062 168.039062 57.21875 167.765625 C 57.492188 167.671875 57.722656 167.59375 57.734375 167.59375 C 57.753906 167.597656 57.886719 167.824219 57.945312 167.960938 C 58.292969 168.742188 58.261719 169.695312 57.855469 170.683594 C 57.609375 171.285156 57.207031 171.875 56.6875 172.390625 C 56.554688 172.523438 56.441406 172.628906 56.433594 172.628906 C 56.425781 172.628906 56.402344 172.570312 56.382812 172.496094 Z M 54.269531 169.363281 C 53.898438 169.0625 53.289062 168.703125 52.863281 168.535156 C 52.679688 168.460938 52.324219 168.347656 52.167969 168.304688 L 52.085938 168.285156 L 52.203125 168.15625 C 52.679688 167.621094 53.40625 167.113281 54.074219 166.84375 C 55.039062 166.457031 55.980469 166.433594 56.765625 166.777344 C 57 166.882812 57.339844 167.105469 57.308594 167.136719 C 57.304688 167.140625 57.136719 167.199219 56.933594 167.265625 C 56.453125 167.429688 56.21875 167.53125 55.976562 167.675781 C 55.34375 168.058594 54.878906 168.566406 54.546875 169.238281 C 54.476562 169.375 54.421875 169.484375 54.421875 169.484375 C 54.417969 169.484375 54.351562 169.429688 54.269531 169.363281 Z M 54.269531 169.363281 " fill-opacity="1" fill-rule="nonzero"/><g fill="#4f2b1d" fill-opacity="1"><g transform="translate(80.757581, 200.277541)"><g/></g></g><g fill="#4f2b1d" fill-opacity="1"><g transform="translate(86.429456, 200.277541)"><g><path d="M 1.632812 0 L 8.070312 0 L 8.070312 -0.980469 L 2.710938 -0.980469 L 2.710938 -11.109375 L 1.632812 -11.109375 Z M 1.632812 0 "/></g></g></g><g fill="#4f2b1d" fill-opacity="1"><g transform="translate(96.944341, 200.277541)"><g><path d="M 5.75 -11.191406 L 5.390625 -11.191406 L 0.230469 -0.03125 L 0.230469 0 L 1.355469 0 L 2.53125 -2.546875 L 8.609375 -2.546875 L 9.785156 0 L 10.910156 0 L 10.910156 -0.03125 Z M 5.570312 -9.292969 C 5.765625 -8.773438 5.960938 -8.28125 6.191406 -7.808594 L 8.152344 -3.527344 L 2.972656 -3.527344 L 4.949219 -7.808594 C 5.179688 -8.296875 5.359375 -8.789062 5.570312 -9.292969 Z M 5.570312 -9.292969 "/></g></g></g><g fill="#4f2b1d" fill-opacity="1"><g transform="translate(110.038461, 200.277541)"><g><path d="M 3.789062 -5.585938 L 9.050781 -11.058594 L 9.050781 -11.109375 L 7.726562 -11.109375 L 2.710938 -5.863281 L 2.710938 -11.109375 L 1.632812 -11.109375 L 1.632812 0 L 2.710938 0 L 2.710938 -5.242188 L 8.003906 0 L 9.359375 0 L 9.359375 -0.0507812 Z M 3.789062 -5.585938 "/></g></g></g><g fill="#4f2b1d" fill-opacity="1"><g transform="translate(121.516481, 200.277541)"><g><path d="M 2.710938 -0.980469 L 2.710938 -5.210938 L 7.597656 -5.210938 L 7.597656 -6.175781 L 2.710938 -6.175781 L 2.710938 -10.128906 L 8.265625 -10.128906 L 8.265625 -11.109375 L 1.632812 -11.109375 L 1.632812 0 L 8.414062 0 L 8.414062 -0.980469 Z M 2.710938 -0.980469 "/></g></g></g><g fill="#4f2b1d" fill-opacity="1"><g transform="translate(132.602724, 200.277541)"><g><path d="M 4.753906 0.195312 C 6.796875 0.195312 8.429688 -0.964844 8.429688 -2.90625 C 8.429688 -4.785156 6.84375 -5.601562 5.015625 -6.257812 C 3.675781 -6.730469 2.335938 -7.21875 2.335938 -8.574219 C 2.335938 -9.734375 3.496094 -10.308594 4.6875 -10.308594 C 5.734375 -10.308594 6.617188 -10.011719 7.515625 -9.375 L 8.003906 -10.191406 C 6.941406 -10.976562 5.878906 -11.304688 4.640625 -11.304688 C 2.84375 -11.304688 1.242188 -10.273438 1.242188 -8.527344 C 1.242188 -6.664062 2.988281 -5.847656 4.621094 -5.277344 C 6.078125 -4.769531 7.351562 -4.230469 7.351562 -2.859375 C 7.351562 -1.535156 6.140625 -0.800781 4.753906 -0.800781 C 3.480469 -0.800781 2.320312 -1.242188 1.488281 -1.992188 L 0.929688 -1.144531 C 1.878906 -0.34375 3.25 0.195312 4.753906 0.195312 Z M 4.753906 0.195312 "/></g></g></g><g fill="#4f2b1d" fill-opacity="1"><g transform="translate(143.819558, 200.277541)"><g><path d="M 1.632812 0 L 2.710938 0 L 2.710938 -11.109375 L 1.632812 -11.109375 Z M 1.632812 0 "/></g></g></g><g fill="#4f2b1d" fill-opacity="1"><g transform="translate(150.122781, 200.277541)"><g><path d="M 1.632812 0 L 5.210938 0 C 8.625 0 10.863281 -2.320312 10.863281 -5.539062 C 10.863281 -8.773438 8.558594 -11.109375 5.195312 -11.109375 L 1.632812 -11.109375 Z M 2.710938 -0.980469 L 2.710938 -10.128906 L 5.195312 -10.128906 C 7.972656 -10.128906 9.800781 -8.136719 9.800781 -5.539062 C 9.800781 -2.957031 7.988281 -0.980469 5.210938 -0.980469 Z M 2.710938 -0.980469 "/></g></g></g><g fill="#4f2b1d" fill-opacity="1"><g transform="translate(163.869881, 200.277541)"><g><path d="M 2.710938 -0.980469 L 2.710938 -5.210938 L 7.597656 -5.210938 L 7.597656 -6.175781 L 2.710938 -6.175781 L 2.710938 -10.128906 L 8.265625 -10.128906 L 8.265625 -11.109375 L 1.632812 -11.109375 L 1.632812 0 L 8.414062 0 L 8.414062 -0.980469 Z M 2.710938 -0.980469 "/></g></g></g><g fill="#4f2b1d" fill-opacity="1"><g transform="translate(174.956126, 200.277541)"><g/></g></g><g fill="#4f2b1d" fill-opacity="1"><g transform="translate(180.639033, 200.277541)"><g><path d="M 6.566406 0.195312 C 8.527344 0.195312 10.046875 -0.71875 10.960938 -2.042969 L 10.191406 -2.644531 C 9.375 -1.550781 8.136719 -0.800781 6.566406 -0.800781 C 3.871094 -0.800781 2.007812 -2.941406 2.007812 -5.570312 C 2.007812 -8.265625 3.886719 -10.308594 6.566406 -10.308594 C 8.152344 -10.308594 9.230469 -9.753906 10.113281 -8.835938 L 10.75 -9.492188 C 9.574219 -10.683594 8.316406 -11.304688 6.566406 -11.304688 C 3.265625 -11.304688 0.929688 -8.855469 0.929688 -5.570312 C 0.929688 -2.402344 3.21875 0.195312 6.566406 0.195312 Z M 6.566406 0.195312 "/></g></g></g><g fill="#4f2b1d" fill-opacity="1"><g transform="translate(194.010675, 200.277541)"><g><path d="M 6.550781 0.195312 C 9.882812 0.195312 12.1875 -2.402344 12.1875 -5.570312 C 12.1875 -8.871094 9.882812 -11.304688 6.550781 -11.304688 C 3.265625 -11.304688 0.929688 -8.871094 0.929688 -5.570312 C 0.929688 -2.402344 3.265625 0.195312 6.550781 0.195312 Z M 6.550781 -0.800781 C 3.855469 -0.800781 2.007812 -2.941406 2.007812 -5.570312 C 2.007812 -8.316406 3.855469 -10.308594 6.550781 -10.308594 C 9.277344 -10.308594 11.109375 -8.316406 11.109375 -5.570312 C 11.109375 -2.941406 9.277344 -0.800781 6.550781 -0.800781 Z M 6.550781 -0.800781 "/></g></g></g><g fill="#4f2b1d" fill-opacity="1"><g transform="translate(209.080037, 200.277541)"><g><path d="M 1.632812 0 L 2.710938 0 L 2.710938 -4.917969 L 7.742188 -4.917969 L 7.742188 -5.898438 L 2.710938 -5.898438 L 2.710938 -10.128906 L 8.316406 -10.128906 L 8.316406 -11.109375 L 1.632812 -11.109375 Z M 1.632812 0 "/></g></g></g><g fill="#4f2b1d" fill-opacity="1"><g transform="translate(219.937733, 200.277541)"><g><path d="M 1.632812 0 L 2.710938 0 L 2.710938 -4.917969 L 7.742188 -4.917969 L 7.742188 -5.898438 L 2.710938 -5.898438 L 2.710938 -10.128906 L 8.316406 -10.128906 L 8.316406 -11.109375 L 1.632812 -11.109375 Z M 1.632812 0 "/></g></g></g><g fill="#4f2b1d" fill-opacity="1"><g transform="translate(230.795429, 200.277541)"><g><path d="M 2.710938 -0.980469 L 2.710938 -5.210938 L 7.597656 -5.210938 L 7.597656 -6.175781 L 2.710938 -6.175781 L 2.710938 -10.128906 L 8.265625 -10.128906 L 8.265625 -11.109375 L 1.632812 -11.109375 L 1.632812 0 L 8.414062 0 L 8.414062 -0.980469 Z M 2.710938 -0.980469 "/></g></g></g><g fill="#4f2b1d" fill-opacity="1"><g transform="translate(241.881674, 200.277541)"><g><path d="M 2.710938 -0.980469 L 2.710938 -5.210938 L 7.597656 -5.210938 L 7.597656 -6.175781 L 2.710938 -6.175781 L 2.710938 -10.128906 L 8.265625 -10.128906 L 8.265625 -11.109375 L 1.632812 -11.109375 L 1.632812 0 L 8.414062 0 L 8.414062 -0.980469 Z M 2.710938 -0.980469 "/></g></g></g><g fill="#4f2b1d" fill-opacity="1"><g transform="translate(252.96792, 200.277541)"><g/></g></g><g fill="#4f2b1d" fill-opacity="1"><g transform="translate(258.650827, 200.277541)"><g><path d="M 7.613281 -5.878906 C 8.414062 -6.355469 8.953125 -7.171875 8.953125 -8.234375 C 8.953125 -9.933594 7.546875 -11.109375 5.78125 -11.109375 L 1.632812 -11.109375 L 1.632812 0 L 6.078125 0 C 8.019531 0 9.457031 -1.257812 9.457031 -3.085938 C 9.457031 -4.328125 8.722656 -5.40625 7.613281 -5.878906 Z M 2.710938 -10.128906 L 5.71875 -10.128906 C 6.941406 -10.128906 7.890625 -9.410156 7.890625 -8.234375 C 7.890625 -6.976562 7.074219 -6.273438 5.75 -6.273438 L 2.710938 -6.273438 Z M 6.027344 -0.980469 L 2.710938 -0.980469 L 2.710938 -5.292969 L 6.109375 -5.292969 C 7.433594 -5.292969 8.378906 -4.425781 8.378906 -3.152344 C 8.378906 -1.8125 7.382812 -0.980469 6.027344 -0.980469 Z M 6.027344 -0.980469 "/></g></g></g><g fill="#4f2b1d" fill-opacity="1"><g transform="translate(270.945065, 200.277541)"><g><path d="M 5.75 -11.191406 L 5.390625 -11.191406 L 0.230469 -0.03125 L 0.230469 0 L 1.355469 0 L 2.53125 -2.546875 L 8.609375 -2.546875 L 9.785156 0 L 10.910156 0 L 10.910156 -0.03125 Z M 5.570312 -9.292969 C 5.765625 -8.773438 5.960938 -8.28125 6.191406 -7.808594 L 8.152344 -3.527344 L 2.972656 -3.527344 L 4.949219 -7.808594 C 5.179688 -8.296875 5.359375 -8.789062 5.570312 -9.292969 Z M 5.570312 -9.292969 "/></g></g></g><g fill="#4f2b1d" fill-opacity="1"><g transform="translate(284.039177, 200.277541)"><g><path d="M 6.417969 -4.65625 C 8.234375 -4.933594 9.375 -6.175781 9.375 -7.839844 C 9.375 -9.6875 7.808594 -11.109375 5.832031 -11.109375 L 1.632812 -11.109375 L 1.632812 0 L 2.710938 0 L 2.710938 -4.605469 L 5.226562 -4.605469 L 8.347656 0 L 9.589844 0 L 9.589844 -0.0507812 Z M 2.710938 -5.585938 L 2.710938 -10.128906 L 5.832031 -10.128906 C 7.285156 -10.128906 8.296875 -9.113281 8.296875 -7.824219 C 8.296875 -6.5 7.335938 -5.585938 5.78125 -5.585938 Z M 2.710938 -5.585938 "/></g></g></g></svg>